<?xml version="1.0" encoding="utf-8"?>
<!-- Generator: Adobe Illustrator 21.0.2, SVG Export Plug-In . SVG Version: 6.00 Build 0)  -->
<svg version="1.1" xmlns="http://www.w3.org/2000/svg" xmlns:xlink="http://www.w3.org/1999/xlink" x="0px" y="0px"
	 viewBox="0 0 348.1 112.6" style="enable-background:new 0 0 348.1 112.6;" xml:space="preserve">
<style type="text/css">
	.st0{fill:#77787B;}
	.st1{fill:#026CB6;}
	.st2{fill:none;stroke:#A7A9AC;stroke-linecap:round;stroke-linejoin:round;stroke-dasharray:0,4;}
	.st3{fill:#026CB6;stroke:#000000;stroke-width:0.21;stroke-miterlimit:10;}
	.st4{fill:#AFCDE2;}
	.st5{fill:#144565;}
	.st6{fill:#468387;}
	.st7{fill:#5C8EB6;}
	.st8{fill:#70CBF3;}
	.st9{fill:#959898;}
	.st10{fill:#FFFFFF;}
	.st11{fill:#656968;}
	.st12{fill:none;stroke:#026CB6;stroke-width:0.1;stroke-miterlimit:10;}
	.st13{fill:none;stroke:#959898;stroke-width:0.5;stroke-miterlimit:10;}
	.st14{display:none;}
	.st15{display:inline;opacity:0.6;fill:#D1D3D4;}
	.st16{display:inline;fill:#E6E7E8;}
	.st17{fill:#003469;}
	.st18{fill:#F2F2F3;}
	.st19{fill:none;stroke:#E6E7E8;stroke-width:0.25;stroke-miterlimit:10;}
	.st20{fill:none;stroke:#A7A9AC;stroke-width:0.25;stroke-miterlimit:10;}
	.st21{fill:none;}
	.st22{fill:none;stroke:#DADADA;stroke-miterlimit:10;stroke-dasharray:1,1;}
	.st23{fill:none;stroke:#808080;stroke-miterlimit:10;stroke-dasharray:1,1;}
	.st24{fill:none;stroke:#95B6DF;stroke-miterlimit:10;stroke-dasharray:1,1;}
	.st25{fill:none;stroke:#5283A5;stroke-miterlimit:10;stroke-dasharray:1,1;}
	.st26{fill:none;stroke:#1EB9A2;stroke-miterlimit:10;stroke-dasharray:1,1;}
	.st27{fill:none;stroke:#003469;stroke-miterlimit:10;stroke-dasharray:1,1;}
	.st28{fill:none;stroke:#ABD2B7;stroke-miterlimit:10;stroke-dasharray:1,1;}
	.st29{fill:none;stroke:#0C587A;stroke-miterlimit:10;stroke-dasharray:1,1;}
	.st30{fill:none;stroke:#2A2A2A;stroke-miterlimit:10;stroke-dasharray:1,1;}
	.st31{fill:none;stroke:#D14E4F;stroke-miterlimit:10;stroke-dasharray:1,1;}
	.st32{fill:none;stroke:#EAA3A5;stroke-miterlimit:10;stroke-dasharray:1,1;}
	.st33{fill:none;stroke:#A27EAE;stroke-miterlimit:10;stroke-dasharray:1,1;}
	.st34{fill:none;stroke:#026CB6;stroke-miterlimit:10;stroke-dasharray:1,1;}
	.st35{fill:#DADADA;stroke:#FFFFFF;stroke-miterlimit:10;}
	.st36{fill:#808080;}
	.st37{fill:#DFDFDF;}
	.st38{fill:#95B6DF;stroke:#FFFFFF;stroke-miterlimit:10;}
	.st39{fill:#5283A5;stroke:#FFFFFF;stroke-miterlimit:10;}
	.st40{fill:#1EB9A2;stroke:#FFFFFF;stroke-miterlimit:10;}
	.st41{fill:#003469;stroke:#FFFFFF;stroke-miterlimit:10;}
	.st42{fill:#ABD2B7;stroke:#FFFFFF;stroke-miterlimit:10;}
	.st43{fill:#0C587A;stroke:#FFFFFF;stroke-miterlimit:10;}
	.st44{fill:#2A2A2A;stroke:#FFFFFF;stroke-miterlimit:10;}
	.st45{fill:#EAA3A5;stroke:#FFFFFF;stroke-miterlimit:10;}
	.st46{fill:#026CB6;stroke:#FFFFFF;stroke-miterlimit:10;}
	.st47{fill:none;stroke:#77787B;stroke-width:1.8;stroke-linecap:round;stroke-miterlimit:10;}
	.st48{fill:none;stroke:#77787B;stroke-linecap:round;stroke-miterlimit:10;}
	.st49{fill:none;stroke:#A27EAE;stroke-width:1.8;stroke-linecap:round;stroke-miterlimit:10;}
	.st50{fill:none;stroke:#A27EAE;stroke-linecap:round;stroke-miterlimit:10;}
	.st51{fill:none;stroke:#D1D3D4;stroke-width:0.25;stroke-miterlimit:10;stroke-dasharray:1,1;}
	.st52{fill:#565F66;}
	.st53{fill:#047AC0;}
	.st54{clip-path:url(#SVGID_2_);}
	.st55{fill:#1E7796;}
	.st56{fill:#3589A5;}
	.st57{fill:#95B6DF;}
	.st58{fill:#95B6DF;stroke:#FFFFFF;stroke-width:0.213;stroke-miterlimit:10;}
	.st59{fill:none;stroke:#FFFFFF;stroke-width:0.213;stroke-miterlimit:10;}
	.st60{fill:#FFFFFF;stroke:#FFFFFF;stroke-width:0.213;stroke-miterlimit:10;}
	.st61{clip-path:url(#SVGID_4_);}
	.st62{fill:#B6E4FA;}
	.st63{fill:#4DB5E7;}
	.st64{fill:none;stroke:#D1D3D4;stroke-width:0.25;stroke-miterlimit:10;}
	.st65{opacity:0;fill:#808080;stroke:#000000;stroke-width:0.5;stroke-miterlimit:10;}
	.st66{opacity:0;fill:#DFDFDF;stroke:#000000;stroke-width:0.5;stroke-miterlimit:10;}
	.st67{fill:#3E7495;}
	.st68{opacity:0;stroke:#000000;stroke-width:0.5;stroke-miterlimit:10;}
	.st69{opacity:0;fill:#606060;stroke:#000000;stroke-width:0.5;stroke-miterlimit:10;}
	.st70{fill:#191C1F;}
	.st71{opacity:0;fill:#BFBFBF;stroke:#000000;stroke-width:0.5;stroke-miterlimit:10;}
	.st72{opacity:0;fill:#202020;stroke:#000000;stroke-width:0.5;stroke-miterlimit:10;}
	.st73{fill:#3A3D3F;}
	.st74{opacity:0;fill:#9F9F9F;stroke:#000000;stroke-width:0.5;stroke-miterlimit:10;}
	.st75{fill:#86A8C5;}
	.st76{opacity:0;fill:#404040;stroke:#000000;stroke-width:0.5;stroke-miterlimit:10;}
	.st77{fill:#0B304F;}
	.st78{opacity:0;}
	.st79{display:inline;fill:#DCDDDE;}
	.st80{display:inline;}
	.st81{clip-path:url(#SVGID_6_);fill:#939598;}
	.st82{display:inline;fill:#BA1222;}
	
		.st83{clip-path:url(#SVGID_8_);fill:none;stroke:#FFFFFF;stroke-width:0.25;stroke-linecap:round;stroke-linejoin:round;stroke-miterlimit:10;}
	.st84{display:inline;fill:none;stroke:#000000;stroke-width:0.5004;stroke-miterlimit:10;}
	.st85{display:inline;opacity:0.5;fill:url(#SVGID_9_);}
	.st86{clip-path:url(#SVGID_11_);fill:#939598;}
	
		.st87{clip-path:url(#SVGID_13_);fill:none;stroke:#FFFFFF;stroke-width:0.25;stroke-linecap:round;stroke-linejoin:round;stroke-miterlimit:10;}
	.st88{display:inline;opacity:0.5;fill:url(#SVGID_14_);}
	.st89{clip-path:url(#SVGID_16_);fill:#939598;}
	.st90{display:inline;clip-path:url(#SVGID_18_);fill:#BA1222;}
	
		.st91{clip-path:url(#SVGID_20_);fill:none;stroke:#FFFFFF;stroke-width:0.25;stroke-linecap:round;stroke-linejoin:round;stroke-miterlimit:10;}
	.st92{display:inline;opacity:0.5;fill:url(#SVGID_21_);}
	.st93{clip-path:url(#SVGID_23_);fill:#939598;}
	
		.st94{clip-path:url(#SVGID_25_);fill:none;stroke:#FFFFFF;stroke-width:0.25;stroke-linecap:round;stroke-linejoin:round;stroke-miterlimit:10;}
	.st95{display:inline;opacity:0.5;fill:url(#SVGID_26_);}
	.st96{clip-path:url(#SVGID_28_);fill:#939598;}
	
		.st97{clip-path:url(#SVGID_30_);fill:none;stroke:#FFFFFF;stroke-width:0.25;stroke-linecap:round;stroke-linejoin:round;stroke-miterlimit:3.85;}
	.st98{display:inline;opacity:0.5;fill:url(#SVGID_31_);}
	.st99{clip-path:url(#SVGID_33_);fill:#939598;}
	
		.st100{clip-path:url(#SVGID_35_);fill:none;stroke:#FFFFFF;stroke-width:0.25;stroke-linecap:round;stroke-linejoin:round;stroke-miterlimit:10;}
	.st101{display:inline;opacity:0.5;fill:url(#SVGID_36_);}
	.st102{fill:#D5E4EE;}
	.st103{fill:#FFFBED;}
	.st104{fill:#3C3F41;}
	.st105{fill:#838686;}
	.st106{fill:#71C7F0;}
	.st107{fill:none;stroke:#144565;stroke-width:0.25;stroke-miterlimit:10;}
	.st108{fill:none;stroke:#86A8C5;stroke-width:0.25;stroke-miterlimit:10;}
	.st109{fill:none;stroke:#191C1F;stroke-width:0.25;stroke-miterlimit:10;}
	.st110{fill:none;stroke:#AFCDE2;stroke-width:0.25;stroke-miterlimit:10;}
	.st111{fill:none;stroke:#3E7495;stroke-width:0.25;stroke-miterlimit:10;}
	.st112{fill:none;stroke:#3A3D3F;stroke-width:0.25;stroke-miterlimit:10;}
	.st113{fill:none;stroke:#959898;stroke-width:0.25;stroke-miterlimit:10;}
	.st114{fill:none;stroke:#5C8EB6;stroke-width:0.25;stroke-miterlimit:10;}
	.st115{fill:none;stroke:#5B8EB6;stroke-width:0.25;stroke-miterlimit:10;}
	.st116{fill:none;stroke:#3A3D3F;stroke-width:0.5;stroke-miterlimit:10;}
	.st117{fill:none;stroke:#0B304F;stroke-width:0.25;stroke-miterlimit:10;}
	.st118{fill:none;stroke:#656968;stroke-width:0.25;stroke-miterlimit:10;}
	.st119{opacity:0.6;}
	.st120{fill:#B8C8D1;}
	.st121{fill:#A7A9AC;}
	.st122{fill:#8A8B8E;}
	.st123{fill:#BBBBBC;}
	.st124{opacity:0.85;}
	.st125{fill:#D1D3D4;}
	.st126{fill:#B2B1B2;}
	.st127{fill:#E6E7E8;}
	.st128{fill:#EAA3A5;}
	.st129{fill:#2A2A2A;}
	.st130{fill:none;stroke:#003469;stroke-width:0.5;stroke-linecap:round;stroke-miterlimit:10;}
	.st131{fill:#DFDFDF;stroke:#000000;stroke-width:0.45;stroke-miterlimit:10;}
	.st132{stroke:#000000;stroke-width:0.45;stroke-miterlimit:10;}
	.st133{fill:none;stroke:#95B6DF;stroke-linecap:round;stroke-linejoin:round;stroke-dasharray:0,4;}
	.st134{fill:#A27EAE;}
	.st135{fill:#77787B;stroke:#F2F2F3;stroke-miterlimit:10;}
	.st136{fill:#A27EAE;stroke:#F2F2F3;stroke-miterlimit:10;}
	.st137{fill:#808080;stroke:#FFFFFF;stroke-miterlimit:10;}
	.st138{fill:#A27EAE;stroke:#FFFFFF;stroke-miterlimit:10;}
	.st139{fill:#77787B;stroke:#FFFFFF;stroke-miterlimit:10;}
	.st140{fill:#72CDDD;}
</style>
<g id="guides">
</g>
<g id="helpful_items">
</g>
<g id="style">
</g>
<g id="metaData">
</g>
<g id="banner">
</g>
<g id="Grid" class="st14">
</g>
<g id="Camada_20">
</g>
<g id="Graphs">
	<g>
		<path class="st53" d="M119.8,91.4h22.5v5.4h-28.6V53.6h27.6v5.3h-21.6v12.9h20.3V77h-20.3V91.4z"/>
		<path class="st53" d="M164.7,88.9h0.2l13-35.3h6.5l-16.9,43.1h-5.6L145,53.6h6.7L164.7,88.9z"/>
		<path class="st53" d="M195.5,91.4H218v5.4h-28.6V53.6h27.6v5.3h-21.6v12.9h20.3V77h-20.3V91.4z"/>
		<path class="st53" d="M256.4,88.1h0.1V53.6h6v43.1H255l-22.8-35.2h-0.1v35.2h-6V53.6h7.9L256.4,88.1z"/>
		<path class="st53" d="M288.2,96.7h-6V58.9h-13.8v-5.3H302v5.3h-13.8V96.7z"/>
		<path class="st53" d="M329.1,61.6c-0.9-1.2-2-2.1-3.5-2.9c-1.5-0.8-3.1-1.1-4.9-1.1c-1,0-2,0.1-3,0.4c-1,0.3-1.9,0.7-2.7,1.3
			c-0.8,0.6-1.5,1.3-2,2.2c-0.5,0.9-0.8,1.9-0.8,3.1c0,1.2,0.2,2.2,0.7,3c0.5,0.8,1.1,1.5,1.9,2c0.8,0.5,1.7,1,2.8,1.4
			c1.1,0.4,2.2,0.8,3.4,1.2c1.5,0.4,2.9,1,4.4,1.5c1.5,0.6,2.9,1.3,4.1,2.3c1.2,0.9,2.2,2.1,3,3.5c0.8,1.4,1.2,3.2,1.2,5.3
			c0,2.2-0.4,4.2-1.2,5.8s-1.9,3-3.3,4.1c-1.4,1.1-3,1.9-4.8,2.4c-1.8,0.5-3.7,0.8-5.6,0.8c-2.7,0-5.3-0.5-7.9-1.6
			c-2.5-1.1-4.6-2.6-6.3-4.7l4.7-4c1,1.5,2.4,2.7,4.1,3.7c1.7,0.9,3.6,1.4,5.5,1.4c1,0,2-0.1,3-0.4c1-0.3,1.9-0.7,2.8-1.3
			c0.8-0.6,1.5-1.4,2-2.3s0.8-2,0.8-3.3c0-1.3-0.3-2.4-0.8-3.3c-0.5-0.9-1.3-1.6-2.2-2.2s-2-1.1-3.3-1.6c-1.2-0.4-2.5-0.9-3.9-1.3
			c-1.4-0.4-2.7-0.9-4.1-1.5c-1.3-0.6-2.5-1.3-3.6-2.3c-1.1-0.9-1.9-2-2.6-3.4c-0.6-1.3-1-3-1-5c0-2.2,0.4-4,1.3-5.5
			c0.9-1.5,2-2.8,3.4-3.8c1.4-1,3-1.8,4.7-2.2c1.8-0.5,3.5-0.7,5.3-0.7c2.5,0,4.9,0.4,7.1,1.3c2.2,0.9,4,2.1,5.3,3.6L329.1,61.6z"/>
	</g>
	<g>
		<path class="st53" d="M133.2,41.8V28.2h-18.2v13.6h-0.8v-27h0.8v12.7h18.2V14.8h0.8v27H133.2z"/>
		<path class="st53" d="M153.9,39.4c-0.5,0.6-1,1.2-1.6,1.6c-0.6,0.4-1.3,0.8-2,1c-0.7,0.2-1.5,0.3-2.2,0.3c-1.2,0-2.2-0.2-3.1-0.6
			c-0.8-0.4-1.5-1-1.9-1.7c-0.5-0.7-0.8-1.5-1-2.4c-0.2-0.9-0.3-1.8-0.3-2.7V24.3h0.8v10.5c0,0.7,0.1,1.5,0.2,2.3
			c0.2,0.8,0.4,1.5,0.9,2.2c0.4,0.7,1,1.2,1.7,1.7c0.7,0.4,1.6,0.7,2.7,0.7c1,0,1.9-0.2,2.7-0.6c0.9-0.4,1.6-1,2.2-1.7
			c0.6-0.7,1.1-1.6,1.5-2.7c0.4-1.1,0.6-2.3,0.6-3.6v-8.8h0.8v13.1c0,0.3,0,0.6,0,1c0,0.4,0,0.8,0,1.2c0,0.4,0,0.8,0.1,1.2
			c0,0.4,0.1,0.7,0.1,1h-0.8c0-0.3,0-0.6-0.1-1c0-0.4,0-0.8,0-1.2c0-0.4,0-0.9,0-1.3c0-0.4,0-0.8,0-1.1H155
			C154.7,38,154.4,38.8,153.9,39.4z"/>
		<path class="st53" d="M177.3,29.1c0.5-1.7,1.4-3.1,2.6-4c1.2-0.9,2.6-1.4,4.2-1.4c1.2,0,2.2,0.2,3,0.6s1.4,1,1.9,1.7
			c0.5,0.7,0.8,1.5,1,2.4c0.2,0.9,0.3,1.8,0.3,2.7v10.6h-0.8V31.3c0-0.7-0.1-1.5-0.2-2.3c-0.2-0.8-0.5-1.6-0.9-2.2s-1-1.2-1.6-1.7
			c-0.7-0.4-1.6-0.7-2.6-0.7c-0.9,0-1.8,0.2-2.6,0.6c-0.8,0.4-1.5,1-2.1,1.7c-0.6,0.7-1.1,1.6-1.4,2.7c-0.4,1.1-0.5,2.3-0.5,3.6v8.8
			h-0.8V31.3c0-0.7-0.1-1.5-0.2-2.3c-0.1-0.8-0.4-1.6-0.8-2.2s-0.9-1.2-1.6-1.7c-0.7-0.4-1.5-0.7-2.6-0.7c-0.9,0-1.8,0.2-2.6,0.6
			c-0.8,0.4-1.5,1-2.1,1.7c-0.6,0.7-1.1,1.6-1.4,2.7c-0.3,1.1-0.5,2.3-0.5,3.6v8.8H164V28.7c0-0.3,0-0.6,0-1c0-0.4,0-0.8,0-1.2
			c0-0.4,0-0.8-0.1-1.2c0-0.4-0.1-0.7-0.1-1h0.8c0,0.3,0,0.6,0.1,1c0,0.4,0,0.8,0,1.2c0,0.4,0,0.9,0,1.3c0,0.4,0,0.8,0,1.1h0.1
			c0.3-0.8,0.6-1.5,1.1-2.2c0.5-0.6,1-1.2,1.5-1.6c0.6-0.4,1.2-0.8,1.9-1c0.7-0.2,1.4-0.3,2.1-0.3c0.9,0,1.7,0.1,2.4,0.4
			c0.7,0.3,1.2,0.7,1.7,1.1c0.5,0.5,0.8,1.1,1.1,1.7C176.9,27.6,177.1,28.4,177.3,29.1L177.3,29.1z"/>
		<path class="st53" d="M209.9,37.9c0,0.7,0,1.4,0.1,2.1c0.1,0.8,0.1,1.4,0.2,1.9h-0.8c-0.1-0.3-0.1-0.6-0.1-0.9s-0.1-0.8-0.1-1.1
			c0-0.4-0.1-0.8-0.1-1.2s0-0.7,0-1H209c-0.5,1.6-1.4,2.8-2.6,3.6c-1.2,0.8-2.6,1.2-4,1.2c-0.7,0-1.4-0.1-2.1-0.3
			c-0.7-0.2-1.3-0.5-1.9-0.9c-0.6-0.4-1-0.9-1.4-1.6c-0.3-0.6-0.5-1.4-0.5-2.3c0-1.2,0.3-2.3,1-3c0.6-0.8,1.5-1.4,2.4-1.8
			c1-0.4,2-0.7,3.1-0.8s2.1-0.2,3-0.2h3.1v-1.4c0-2-0.5-3.4-1.6-4.3c-1-0.9-2.4-1.4-4.1-1.4c-1,0-2,0.2-2.9,0.6
			c-0.9,0.4-1.7,0.9-2.4,1.5l-0.5-0.6c0.8-0.7,1.7-1.3,2.8-1.6c1-0.4,2-0.6,3-0.6c2,0,3.6,0.5,4.8,1.5c1.2,1,1.7,2.7,1.7,4.9V37.9z
			 M209.1,32.3h-2.7c-1,0-2,0.1-3.1,0.2c-1.1,0.1-2,0.4-2.9,0.7c-0.9,0.4-1.6,0.9-2.2,1.5c-0.6,0.7-0.9,1.6-0.9,2.7
			c0,0.8,0.2,1.5,0.5,2c0.3,0.5,0.7,1,1.2,1.3c0.5,0.3,1,0.6,1.6,0.7c0.6,0.2,1.2,0.2,1.7,0.2c1.3,0,2.4-0.2,3.2-0.7
			c0.9-0.5,1.6-1.1,2.1-1.9c0.5-0.8,0.9-1.6,1.1-2.5c0.2-0.9,0.3-1.8,0.3-2.7V32.3z"/>
		<path class="st53" d="M219.5,26.7c0.5-0.6,1-1.2,1.6-1.6c0.6-0.4,1.3-0.8,2-1c0.7-0.2,1.5-0.3,2.2-0.3c1.2,0,2.2,0.2,3.1,0.6
			c0.8,0.4,1.5,1,1.9,1.7s0.8,1.5,1,2.4c0.2,0.9,0.3,1.8,0.3,2.7v10.6h-0.8V31.3c0-0.7-0.1-1.5-0.2-2.3c-0.2-0.8-0.4-1.6-0.9-2.2
			s-1-1.2-1.7-1.7c-0.7-0.4-1.6-0.7-2.7-0.7c-1,0-1.9,0.2-2.7,0.6c-0.9,0.4-1.6,1-2.2,1.7c-0.6,0.7-1.1,1.6-1.5,2.7
			c-0.4,1.1-0.6,2.3-0.6,3.6v8.8h-0.8V28.7c0-0.3,0-0.6,0-1c0-0.4,0-0.8,0-1.2c0-0.4,0-0.8-0.1-1.2c0-0.4-0.1-0.7-0.1-1h0.8
			c0,0.3,0,0.6,0.1,1c0,0.4,0,0.8,0,1.2c0,0.4,0,0.9,0,1.3c0,0.4,0,0.8,0,1.1h0.1C218.6,28.1,219,27.3,219.5,26.7z"/>
		<path class="st53" d="M239.7,17.7c-0.2,0-0.4-0.1-0.6-0.3c-0.2-0.2-0.3-0.4-0.3-0.7c0-0.3,0.1-0.5,0.3-0.7
			c0.2-0.2,0.4-0.3,0.6-0.3c0.2,0,0.4,0.1,0.6,0.3c0.2,0.2,0.3,0.4,0.3,0.7c0,0.3-0.1,0.5-0.3,0.7C240.1,17.6,239.9,17.7,239.7,17.7
			z M239.2,41.8V24.3h0.8v17.6H239.2z"/>
		<path class="st53" d="M253.6,42.2c-0.4,0.1-0.8,0.1-1.2,0.1c-1.4,0-2.4-0.4-2.9-1.2s-0.9-1.8-0.9-2.9V25h-3.8v-0.7h3.8v-5.2h0.8
			v5.2h5.2V25h-5.2v13.2c0,1.2,0.3,2.1,0.9,2.6c0.6,0.5,1.4,0.8,2.3,0.8c0.7,0,1.4-0.1,1.9-0.3l0.1,0.6
			C254.3,42,254,42.1,253.6,42.2z"/>
		<path class="st53" d="M271.5,37.9c0,0.7,0,1.4,0.1,2.1c0.1,0.8,0.1,1.4,0.2,1.9H271c-0.1-0.3-0.1-0.6-0.1-0.9s-0.1-0.8-0.1-1.1
			c0-0.4-0.1-0.8-0.1-1.2s0-0.7,0-1h-0.1c-0.5,1.6-1.4,2.8-2.6,3.6c-1.2,0.8-2.6,1.2-4,1.2c-0.7,0-1.4-0.1-2.1-0.3
			c-0.7-0.2-1.3-0.5-1.9-0.9c-0.6-0.4-1-0.9-1.4-1.6c-0.3-0.6-0.5-1.4-0.5-2.3c0-1.2,0.3-2.3,1-3c0.6-0.8,1.5-1.4,2.4-1.8
			c1-0.4,2-0.7,3.1-0.8s2.1-0.2,3-0.2h3.1v-1.4c0-2-0.5-3.4-1.6-4.3c-1-0.9-2.4-1.4-4.1-1.4c-1,0-2,0.2-2.9,0.6
			c-0.9,0.4-1.7,0.9-2.4,1.5l-0.5-0.6c0.8-0.7,1.7-1.3,2.8-1.6c1-0.4,2-0.6,3-0.6c2,0,3.6,0.5,4.8,1.5c1.2,1,1.7,2.7,1.7,4.9V37.9z
			 M270.7,32.3H268c-1,0-2,0.1-3.1,0.2c-1.1,0.1-2,0.4-2.9,0.7c-0.9,0.4-1.6,0.9-2.2,1.5c-0.6,0.7-0.9,1.6-0.9,2.7
			c0,0.8,0.2,1.5,0.5,2c0.3,0.5,0.7,1,1.2,1.3c0.5,0.3,1,0.6,1.6,0.7c0.6,0.2,1.2,0.2,1.7,0.2c1.3,0,2.4-0.2,3.2-0.7
			c0.9-0.5,1.6-1.1,2.1-1.9c0.5-0.8,0.9-1.6,1.1-2.5c0.2-0.9,0.3-1.8,0.3-2.7V32.3z"/>
		<path class="st53" d="M282.5,24.9c1.1-0.8,2.3-1.2,3.6-1.2c0.1,0,0.2,0,0.3,0s0.2,0,0.3,0v0.7c-0.1,0-0.2,0-0.3,0
			c-0.1,0-0.2,0-0.2,0c-1.1,0-2.1,0.2-2.9,0.7c-0.8,0.5-1.4,1.1-1.9,1.9c-0.5,0.8-0.9,1.7-1.1,2.7c-0.2,1-0.4,2-0.4,2.9v9.1h-0.8
			V28.7c0-0.3,0-0.6,0-1c0-0.4,0-0.8,0-1.2c0-0.4,0-0.8-0.1-1.2c0-0.4-0.1-0.7-0.1-1h0.8c0,0.3,0,0.6,0.1,1c0,0.4,0,0.8,0,1.2
			c0,0.4,0,0.9,0,1.3c0,0.4,0,0.8,0,1.1h0.1C280.5,27.1,281.3,25.7,282.5,24.9z"/>
		<path class="st53" d="M291.6,17.7c-0.2,0-0.4-0.1-0.6-0.3c-0.2-0.2-0.3-0.4-0.3-0.7c0-0.3,0.1-0.5,0.3-0.7
			c0.2-0.2,0.4-0.3,0.6-0.3c0.2,0,0.4,0.1,0.6,0.3c0.2,0.2,0.3,0.4,0.3,0.7c0,0.3-0.1,0.5-0.3,0.7C292,17.6,291.8,17.7,291.6,17.7z
			 M291.1,41.8V24.3h0.8v17.6H291.1z"/>
		<path class="st53" d="M311.8,37.9c0,0.7,0,1.4,0.1,2.1c0.1,0.8,0.1,1.4,0.2,1.9h-0.8c-0.1-0.3-0.1-0.6-0.1-0.9s-0.1-0.8-0.1-1.1
			c0-0.4-0.1-0.8-0.1-1.2s0-0.7,0-1h-0.1c-0.5,1.6-1.4,2.8-2.6,3.6c-1.2,0.8-2.6,1.2-4,1.2c-0.7,0-1.4-0.1-2.1-0.3
			c-0.7-0.2-1.3-0.5-1.9-0.9c-0.6-0.4-1-0.9-1.4-1.6c-0.3-0.6-0.5-1.4-0.5-2.3c0-1.2,0.3-2.3,1-3c0.6-0.8,1.5-1.4,2.4-1.8
			c1-0.4,2-0.7,3.1-0.8s2.1-0.2,3-0.2h3.1v-1.4c0-2-0.5-3.4-1.6-4.3c-1-0.9-2.4-1.4-4.1-1.4c-1,0-2,0.2-2.9,0.6
			c-0.9,0.4-1.7,0.9-2.4,1.5l-0.5-0.6c0.8-0.7,1.7-1.3,2.8-1.6c1-0.4,2-0.6,3-0.6c2,0,3.6,0.5,4.8,1.5c1.2,1,1.7,2.7,1.7,4.9V37.9z
			 M311,32.3h-2.7c-1,0-2,0.1-3.1,0.2c-1.1,0.1-2,0.4-2.9,0.7c-0.9,0.4-1.6,0.9-2.2,1.5c-0.6,0.7-0.9,1.6-0.9,2.7
			c0,0.8,0.2,1.5,0.5,2c0.3,0.5,0.7,1,1.2,1.3c0.5,0.3,1,0.6,1.6,0.7c0.6,0.2,1.2,0.2,1.7,0.2c1.3,0,2.4-0.2,3.2-0.7
			c0.9-0.5,1.6-1.1,2.1-1.9c0.5-0.8,0.9-1.6,1.1-2.5c0.2-0.9,0.3-1.8,0.3-2.7V32.3z"/>
		<path class="st53" d="M321.4,26.7c0.5-0.6,1-1.2,1.6-1.6c0.6-0.4,1.3-0.8,2-1c0.7-0.2,1.5-0.3,2.2-0.3c1.2,0,2.2,0.2,3.1,0.6
			c0.8,0.4,1.5,1,1.9,1.7s0.8,1.5,1,2.4c0.2,0.9,0.3,1.8,0.3,2.7v10.6h-0.8V31.3c0-0.7-0.1-1.5-0.2-2.3c-0.2-0.8-0.4-1.6-0.9-2.2
			s-1-1.2-1.7-1.7c-0.7-0.4-1.6-0.7-2.7-0.7c-1,0-1.9,0.2-2.7,0.6c-0.9,0.4-1.6,1-2.2,1.7c-0.6,0.7-1.1,1.6-1.5,2.7
			c-0.4,1.1-0.6,2.3-0.6,3.6v8.8h-0.8V28.7c0-0.3,0-0.6,0-1c0-0.4,0-0.8,0-1.2c0-0.4,0-0.8-0.1-1.2c0-0.4-0.1-0.7-0.1-1h0.8
			c0,0.3,0,0.6,0.1,1c0,0.4,0,0.8,0,1.2c0,0.4,0,0.9,0,1.3c0,0.4,0,0.8,0,1.1h0.1C320.6,28.1,320.9,27.3,321.4,26.7z"/>
	</g>
	<g>
		<g>
			<path class="st53" d="M93.1,96.7H19.6c-2.6,0-4.7-2.1-4.7-4.7V18.5c0-2.6,2.1-4.7,4.7-4.7h73.5c2.6,0,4.7,2.1,4.7,4.7V92
				C97.8,94.6,95.7,96.7,93.1,96.7z"/>
		</g>
		<g>
			<defs>
				<path id="SVGID_3_" d="M87.5,97.1H24.9c-5.7,0-10.4-4.6-10.4-10.4V24.1c0-5.7,4.6-10.4,10.4-10.4h62.6c5.7,0,10.4,4.6,10.4,10.4
					v62.6C97.8,92.5,93.2,97.1,87.5,97.1z"/>
			</defs>
			<clipPath id="SVGID_2_">
				<use xlink:href="#SVGID_3_"  style="overflow:visible;"/>
			</clipPath>
			<g class="st54">
				<g>
					<g id="Calendar_2_">
						<g>
							<path class="st62" d="M79.1,29.3L20.8,55.2l-6.3-14.1c-0.8-1.8,0.5-3.7,2.3-4.5l51.1-22.7c1.8-0.8,4.1-0.4,4.9,1.3L79.1,29.3
								z"/>
							<path class="st10" d="M20.4,56.4l-6.6-14.9c-1-2.3,0.6-4.7,2.7-5.7L67.6,13c1.1-0.5,2.3-0.6,3.4-0.3c1.2,0.3,2.2,1.1,2.7,2.1
								l6.6,14.9L20.4,56.4z M69.8,14.3c-0.5,0-1,0.1-1.5,0.3L17.2,37.4c-1.3,0.6-2.4,2-1.8,3.4L21.3,54l56.6-25.2L72,15.6
								c-0.3-0.7-1-1-1.5-1.1C70.3,14.4,70,14.3,69.8,14.3z"/>
						</g>
						<g>
							<g>
								
									<ellipse transform="matrix(0.9136 -0.4066 0.4066 0.9136 -13.5661 14.4035)" class="st10" cx="27.1" cy="39.1" rx="2.6" ry="2.6"/>
							</g>
							<g>
								
									<rect x="23.8" y="27.8" transform="matrix(0.9136 -0.4066 0.4066 0.9136 -11.5324 12.9261)" class="st10" width="1.8" height="11.5"/>
							</g>
						</g>
						<g>
							<g>
								
									<ellipse transform="matrix(0.9136 -0.4066 0.4066 0.9136 -3.9932 27.5845)" class="st10" cx="62.9" cy="23.2" rx="2.6" ry="2.6"/>
							</g>
							<g>
								
									<rect x="59.6" y="11.9" transform="matrix(0.9136 -0.4067 0.4067 0.9136 -1.9597 26.1112)" class="st10" width="1.8" height="11.5"/>
							</g>
						</g>
						<g>
							<path class="st10" d="M96,77L44.9,99.7c-1.8,0.8-4,0.5-4.8-1.3L20.8,55.2l58.2-25.9l19.3,43.3C99.1,74.3,97.8,76.2,96,77z"/>
							<path class="st10" d="M42.9,101c-0.3,0-0.7,0-1-0.1c-1.2-0.3-2.2-1-2.7-2.1L19.6,54.7l59.9-26.6l19.6,44.1
								c0.5,1.1,0.4,2.3-0.2,3.4c-0.5,0.9-1.4,1.7-2.5,2.2l-51.1,22.7C44.5,100.9,43.7,101,42.9,101z M22,55.6l18.9,42.5
								c0.3,0.6,0.7,0.9,1.4,1.1c0.7,0.1,1.5,0,2.2-0.3l51.1-22.7c0.7-0.3,1.4-0.9,1.7-1.5c0.3-0.6,0.4-1.2,0.1-1.8L78.6,30.4
								L22,55.6z"/>
						</g>
					</g>
					<g>
						
							<rect x="31.8" y="55.6" transform="matrix(0.9136 -0.4066 0.4066 0.9136 -21.2559 19.8757)" class="st63" width="8.8" height="8.8"/>
					</g>
					<g>
						
							<rect x="37.3" y="67.9" transform="matrix(0.9136 -0.4066 0.4066 0.9136 -25.8018 23.1771)" class="st63" width="8.8" height="8.8"/>
					</g>
					<g>
						
							<rect x="42.7" y="80.3" transform="matrix(0.9136 -0.4066 0.4066 0.9136 -30.3476 26.4786)" class="st63" width="8.8" height="8.8"/>
					</g>
				</g>
			</g>
		</g>
	</g>
</g>
<g id="globe">
	<g id="Pacific_Globe" class="st14">
		<g id="country_5_">
		</g>
	</g>
	<g id="Oceania_Globe" class="st14">
		<g id="country_4_">
		</g>
	</g>
	<g id="Middle_East_Globe" class="st14">
	</g>
	<g id="Europe_Globe" class="st14">
		<g id="country_3_">
		</g>
	</g>
	<g id="Americas_Globe" class="st14">
		<g id="country_2_">
		</g>
	</g>
	<g id="Asia_Globe" class="st14">
		<g id="country_1_">
		</g>
	</g>
	<g id="Africa_Globe">
		<g id="country">
		</g>
	</g>
</g>
</svg>
