<svg id="Layer_1" data-name="Layer 1" xmlns="http://www.w3.org/2000/svg" xmlns:xlink="http://www.w3.org/1999/xlink" viewBox="0 0 104.76 36.91"><defs><style>.cls-1,.cls-8{fill:none;}.cls-2,.cls-3{isolation:isolate;}.cls-2{font-size:19.7px;font-family:AvenirNext-Medium, Avenir Next;}.cls-2,.cls-3,.cls-4{fill:#047ac0;}.cls-3{font-size:12.36px;font-family:AvenirNext-UltraLight, Avenir Next;}.cls-5{clip-path:url(#clip-path);}.cls-6{fill:#b6e4fa;}.cls-6,.cls-8,.cls-9{stroke:#fff;stroke-miterlimit:10;stroke-width:0.57px;}.cls-7,.cls-9{fill:#fff;}.cls-10{fill:#4db5e7;}</style><clipPath id="clip-path" transform="translate(0.37 0.95)"><path class="cls-1" d="M23.5,27.5H3.3A3.37,3.37,0,0,1-.1,24.1V3.9A3.37,3.37,0,0,1,3.3.5H23.6A3.37,3.37,0,0,1,27,3.9V24.2A3.51,3.51,0,0,1,23.5,27.5Z"/></clipPath></defs><title>humanitarian-events-logo</title><g id="Graphs"><text class="cls-2" transform="translate(30.73 28.32)">EVENTS</text><text class="cls-3" transform="translate(31.26 10.56)">Humanitarian</text><path class="cls-4" d="M25.4,27.4H1.6A1.54,1.54,0,0,1,.1,25.9V2.1A1.54,1.54,0,0,1,1.6.6H25.4a1.54,1.54,0,0,1,1.5,1.5V25.8A1.56,1.56,0,0,1,25.4,27.4Z" transform="translate(0.37 0.95)"/><g class="cls-5"><g id="Calendar"><path class="cls-6" d="M20.8,5.5,2,13.9,0,9.4c-.3-.6.2-1.2.7-1.5L17.2.5a1.23,1.23,0,0,1,1.6.4Z" transform="translate(0.37 0.95)"/><circle class="cls-7" cx="3.99" cy="8.7" r="0.8" transform="translate(-2.82 3.33) rotate(-23.99)"/><line class="cls-8" x1="4.38" y1="9.55" x2="2.78" y2="6.15"/><circle class="cls-7" cx="15.62" cy="3.59" r="0.8" transform="translate(0.26 7.61) rotate(-23.99)"/><line class="cls-8" x1="15.88" y1="4.45" x2="14.38" y2="1.05"/><path class="cls-9" d="M26.3,21,9.8,28.4A1.14,1.14,0,0,1,8.2,28L2,14,20.9,5.6l6.2,14C27.3,20.1,26.9,20.7,26.3,21Z" transform="translate(0.37 0.95)"/></g><rect class="cls-10" x="5.52" y="14.11" width="2.8" height="2.8" transform="translate(-5.33 5.1) rotate(-23.99)"/><rect class="cls-10" x="7.28" y="18.01" width="2.8" height="2.8" transform="translate(-6.77 6.16) rotate(-23.99)"/><rect class="cls-10" x="9.08" y="22" width="2.8" height="2.8" transform="translate(-8.24 7.23) rotate(-23.99)"/></g></g></svg>